<svg width="42" height="42" viewBox="0 0 42 42" fill="none" xmlns="http://www.w3.org/2000/svg">
<circle cx="21" cy="21" r="21" fill="#F3F3F3"/>
<path d="M14.9148 19.1141C15.3515 17.7929 16.1943 16.6434 17.3229 15.8295C18.4516 15.0156 19.8084 14.5789 21.1999 14.5818C22.7772 14.5818 24.2034 15.1418 25.3234 16.0583L28.5826 12.8001C26.5964 11.0687 24.0512 10.0001 21.1999 10.0001C16.7852 10.0001 12.9847 12.5182 11.1572 16.2067L14.9148 19.1141Z" fill="#0C0507"/>
<path d="M24.9709 26.8122C23.9536 27.4683 22.6619 27.8183 21.2003 27.8183C19.8143 27.8211 18.4626 27.388 17.3365 26.5801C16.2103 25.7722 15.3669 24.6306 14.9255 23.3168L11.1548 26.1794C12.0799 28.0519 13.5117 29.6275 15.2874 30.7271C17.0631 31.8267 19.1116 32.4063 21.2003 32.4C23.9377 32.4 26.5529 31.4266 28.512 29.6L24.9719 26.8122H24.9709Z" fill="#0C0507"/>
<path d="M28.5119 29.6C30.5606 27.6886 31.8906 24.8438 31.8906 21.2C31.8906 20.5374 31.7889 19.8252 31.6367 19.1635H21.2002V23.4914H27.2071C26.9113 24.9464 26.1151 26.073 24.9718 26.8122L28.5119 29.6Z" fill="#0C0507"/>
<path d="M14.9253 23.3169C14.697 22.6345 14.581 21.9196 14.5818 21.2001C14.5818 20.4702 14.6985 19.7693 14.915 19.1141L11.1574 16.2067C10.3887 17.7586 9.99246 19.4683 10.0001 21.2001C10.0001 22.9921 10.4154 24.6814 11.1546 26.1794L14.9253 23.3169Z" fill="#0C0507"/>
</svg>
