<svg width="295" height="196" viewBox="0 0 295 196" fill="none" xmlns="http://www.w3.org/2000/svg">
<g clip-path="url(#clip0_748_7278)">
<path d="M130.881 43.7995L137.73 40.0662L139.559 31.2662L146.309 30.9995L147.938 39.4328L154.222 43.9328L143.05 48.2328L130.881 43.7995Z" fill="white" stroke="#04060F" stroke-width="0.760758" stroke-miterlimit="10" stroke-linecap="round" stroke-linejoin="round"/>
<path fill-rule="evenodd" clip-rule="evenodd" d="M119.177 48.333C111.962 48.3663 69.8674 69.3997 86.193 89.333C94.173 99.0663 132.975 66.6997 132.975 66.6997L142.751 58.1663L119.177 48.333Z" fill="white" stroke="#04060F" stroke-width="0.760758" stroke-miterlimit="10" stroke-linecap="round" stroke-linejoin="round"/>
<path fill-rule="evenodd" clip-rule="evenodd" d="M174.937 64.8657C174.937 64.8657 183.282 73.4657 187.505 91.3991C191.063 106.366 188.17 122.899 183.349 131.666C178.528 140.432 169.949 139.399 169.949 139.399L166.259 67.5324L174.937 64.8657Z" fill="white" stroke="#04060F" stroke-width="0.760758" stroke-miterlimit="10" stroke-linecap="round" stroke-linejoin="round"/>
<path fill-rule="evenodd" clip-rule="evenodd" d="M119.11 94.6665C119.11 94.6665 113.657 128.767 110.931 150.466C106.243 187.766 105.312 244 105.312 244L138.462 245.133L144.414 134.133L150.132 245.033L184.912 243.366C184.912 243.366 183.05 188.633 178.495 149.633C175.203 122.133 163.599 81.6665 163.599 81.6665" fill="white"/>
<path d="M119.11 94.6665C119.11 94.6665 113.657 128.767 110.931 150.467C106.243 187.766 105.312 244 105.312 244L138.462 245.133L144.414 134.133L150.132 245.033L184.912 243.366C184.912 243.366 183.05 188.633 178.495 149.633C175.203 122.133 163.599 81.6665 163.599 81.6665" stroke="#04060F" stroke-width="0.760758" stroke-miterlimit="10" stroke-linecap="round" stroke-linejoin="round"/>
<path fill-rule="evenodd" clip-rule="evenodd" d="M135.037 26.5662C136.3 26.2662 137.664 27.3995 138.063 29.0995C138.462 30.7995 137.73 32.3995 136.467 32.6995C135.203 32.9995 133.84 31.8662 133.441 30.1662C133.075 28.4662 133.773 26.8662 135.037 26.5662Z" fill="white"/>
<path d="M135.037 26.5662C136.3 26.2662 137.664 27.3995 138.063 29.0995C138.462 30.7995 137.73 32.3995 136.467 32.6995C135.203 32.9995 133.84 31.8662 133.441 30.1662C133.075 28.4662 133.773 26.8662 135.037 26.5662Z" stroke="#04060F" stroke-width="0.760758" stroke-miterlimit="10" stroke-linecap="round" stroke-linejoin="round"/>
<path fill-rule="evenodd" clip-rule="evenodd" d="M149.966 25.9998C151.197 26.4332 151.729 28.1332 151.13 29.7665C150.532 31.3999 149.069 32.3665 147.838 31.8999C146.608 31.4665 146.076 29.7665 146.675 28.1332C147.273 26.4998 148.769 25.5332 149.966 25.9998Z" fill="white" stroke="#04060F" stroke-width="0.760758" stroke-miterlimit="10" stroke-linecap="round" stroke-linejoin="round"/>
<path fill-rule="evenodd" clip-rule="evenodd" d="M142.552 16.6333C146.375 16.6333 149.501 21.3 149.501 27.0333C149.501 32.7666 146.408 37.4333 142.552 37.4333C138.728 37.4333 135.602 32.7666 135.602 27.0333C135.602 21.3 138.728 16.6333 142.552 16.6333Z" fill="white" stroke="#04060F" stroke-width="0.760758" stroke-miterlimit="10" stroke-linecap="round" stroke-linejoin="round"/>
<path fill-rule="evenodd" clip-rule="evenodd" d="M144.18 18.5665C144.845 22.7665 141.82 26.7331 137.398 27.4665C132.975 28.1665 128.852 25.3665 128.187 21.1665C127.522 16.9665 130.548 12.9998 134.97 12.2665C139.393 11.5331 143.515 14.3665 144.18 18.5665Z" fill="#04060F"/>
<path fill-rule="evenodd" clip-rule="evenodd" d="M150.431 17.8327C152.393 19.1994 152.659 22.2327 151.03 24.5994C149.401 26.9661 146.475 27.7661 144.48 26.3994C142.518 25.0327 142.252 21.9994 143.881 19.6327C145.544 17.2661 148.47 16.4661 150.431 17.8327Z" fill="#04060F"/>
<path fill-rule="evenodd" clip-rule="evenodd" d="M146.575 16.8995C146.874 18.7661 146.142 20.4661 144.945 20.6661C143.748 20.8661 142.518 19.4995 142.219 17.6328C141.92 15.7661 142.651 14.0661 143.848 13.8661C145.045 13.6661 146.275 15.0328 146.575 16.8995Z" fill="#04060F"/>
<path fill-rule="evenodd" clip-rule="evenodd" d="M132.975 41.5994C133.142 41.5327 133.275 41.4661 133.441 41.3994C133.973 43.7661 138.029 45.5994 142.95 45.5994C147.638 45.5994 151.529 43.9327 152.36 41.6994C152.426 41.7327 167.455 40.1327 181.354 71.4661L166.724 73.0994C171.113 88.7327 172.044 103.833 172.044 103.833L113.89 103.666C113.89 103.666 114.089 87.8327 119.11 71.2661L100.79 54.6661C117.913 43.0994 133.042 41.4661 133.042 41.4661L132.975 41.5994Z" fill="white" stroke="#04060F" stroke-width="0.760758" stroke-miterlimit="10" stroke-linecap="round" stroke-linejoin="round"/>
<path fill-rule="evenodd" clip-rule="evenodd" d="M140.224 29.3662C140.224 30.1662 139.925 30.7995 139.559 30.7995C139.193 30.7995 138.894 30.1329 138.927 29.3662C138.927 28.5662 139.226 27.9328 139.592 27.9328C139.958 27.8995 140.224 28.5662 140.224 29.3662Z" fill="#04060F"/>
<path fill-rule="evenodd" clip-rule="evenodd" d="M145.843 29.2666C145.843 30.0666 145.544 30.6999 145.178 30.6999C144.812 30.6999 144.513 30.0332 144.546 29.2666C144.546 28.4666 144.846 27.8332 145.211 27.8332C145.577 27.7999 145.843 28.4666 145.843 29.2666Z" fill="#04060F"/>
<path d="M139.625 4.26628C141.454 4.26628 143.283 4.49961 145.045 4.96627C150.631 6.39961 155.319 9.96628 158.245 14.9329C161.171 19.8996 162.002 25.7663 160.539 31.3663C158.079 40.9329 149.467 47.5996 139.625 47.5996C137.796 47.5996 135.968 47.3663 134.206 46.8996C128.62 45.4663 123.931 41.8996 121.005 36.9329C118.079 31.9329 117.248 26.0996 118.711 20.4996C121.172 10.9329 129.783 4.26628 139.625 4.26628ZM139.625 -0.400391C127.955 -0.400391 117.281 7.46628 114.222 19.3329C110.598 33.3996 119.044 47.7663 133.075 51.4329C135.27 51.9996 137.497 52.2663 139.658 52.2663C151.329 52.2663 162.002 44.3996 165.061 32.5329C168.686 18.4663 160.24 4.09961 146.209 0.432943C144.014 -0.133724 141.786 -0.400391 139.625 -0.400391Z" fill="#D3E7FE"/>
<path d="M129.883 48.2998L120.639 84.1998L128.054 86.1331L137.331 50.2331L129.883 48.2998Z" fill="#D3E7FE"/>
<path fill-rule="evenodd" clip-rule="evenodd" d="M98.0632 69.7332C98.0632 69.7332 116.384 70.0665 119.908 69.4665C123.798 68.8332 132.975 62.3665 135.037 67.4665C135.968 69.7665 134.771 74.3665 132.344 76.1998C129.285 78.5332 120.74 78.1998 120.74 78.1998C120.74 78.1998 102.918 93.3998 89.7507 91.0665" fill="white"/>
<path d="M98.0632 69.7332C98.0632 69.7332 116.384 70.0665 119.908 69.4665C123.798 68.8332 132.975 62.3665 135.037 67.4665C135.968 69.7665 134.771 74.3665 132.344 76.1998C129.285 78.5332 120.74 78.1998 120.74 78.1998C120.74 78.1998 102.918 93.3998 89.7507 91.0665" stroke="#04060F" stroke-width="0.760758" stroke-miterlimit="10" stroke-linejoin="round"/>
<path d="M74.9543 130.9C154.854 130.733 196.981 130.867 251.777 130.9" stroke="#04060F" stroke-width="0.760758" stroke-miterlimit="10" stroke-linecap="round" stroke-linejoin="round"/>
<path fill-rule="evenodd" clip-rule="evenodd" d="M201.27 117.7C214.736 115 218.793 141.6 232.691 129.7C247.088 117.366 253.472 51.0663 253.472 51.0663L224.08 45.333C224.08 45.333 221.719 66.4664 218.726 79.3997C207.521 127.5 202.434 120.166 199.309 123.566" fill="white"/>
<path d="M201.27 117.7C214.736 115 218.793 141.6 232.691 129.7C247.088 117.366 253.472 51.0663 253.472 51.0663L224.08 45.333C224.08 45.333 221.719 66.4664 218.726 79.3997C207.521 127.5 202.434 120.166 199.309 123.566" stroke="#04060F" stroke-width="0.760758" stroke-miterlimit="10" stroke-linejoin="round"/>
<path fill-rule="evenodd" clip-rule="evenodd" d="M142.285 131.733C142.285 131.733 147.738 120.666 155.785 122.066C162.967 123.333 164.463 127.033 167.422 130.5C169.816 133.3 175.302 141.466 179.093 142.733L149.766 136.333C149.766 136.333 146.94 135.533 145.311 134.466C143.648 133.433 142.285 131.733 142.285 131.733Z" fill="#D3E7FE"/>
<path fill-rule="evenodd" clip-rule="evenodd" d="M142.285 131.733C142.285 131.733 147.738 120.666 155.785 122.066C162.967 123.333 164.463 127.033 167.422 130.5C169.816 133.3 175.302 141.466 179.093 142.733L149.766 136.333C149.766 136.333 146.94 135.533 145.311 134.466C143.648 133.433 142.285 131.733 142.285 131.733ZM175.967 141.433C175.202 140.766 174.404 139.966 173.606 139.1C170.98 136.2 168.419 132.6 166.99 130.9C164.13 127.533 162.667 123.9 155.718 122.666C152.692 122.133 150.066 123.5 148.004 125.333C145.377 127.633 143.615 130.666 143.05 131.666C143.515 132.166 144.513 133.266 145.677 134C147.173 134.966 149.733 135.7 149.966 135.766L175.967 141.433Z" fill="#04060F"/>
<path fill-rule="evenodd" clip-rule="evenodd" d="M155.153 122.033C155.319 121.7 125.76 115.533 125.76 115.533C125.76 115.533 123.133 115.033 118.678 118.467C114.156 121.933 113.291 125.6 108.271 131C108.636 131.533 109.8 140.367 125.594 142.8C133.108 143.967 140.49 136 145.244 128.8C149.401 122.467 154.987 122.267 155.153 122.033Z" fill="white"/>
<path fill-rule="evenodd" clip-rule="evenodd" d="M125.76 115.566C125.76 115.566 123.133 115.066 118.678 118.5C114.156 121.966 113.291 125.633 108.271 131.033C108.636 131.566 109.8 140.4 125.594 142.833C133.108 144 140.49 136.033 145.245 128.833C149.434 122.466 155.053 122.3 155.186 122.033C155.319 121.7 125.76 115.566 125.76 115.566ZM144.679 128.5C141.886 132.766 138.129 137.3 134.006 140C131.346 141.733 128.487 142.7 125.627 142.266C111.862 140.133 109.534 133.033 108.936 131.266L108.902 131.2C111.296 128.6 112.726 126.4 114.089 124.4C115.453 122.433 116.783 120.7 118.977 119C123.167 115.766 125.594 116.166 125.594 116.166C125.594 116.166 146.142 120.433 152.859 122.066C150.764 122.7 147.439 124.333 144.679 128.5Z" fill="#04060F"/>
<path fill-rule="evenodd" clip-rule="evenodd" d="M74.1897 112.833L103.582 119.433C103.582 119.433 109.567 140.833 125.494 142.8L94.5053 136.1C94.5053 136.1 87.4564 134.666 81.1389 126.5C74.8214 118.3 74.1897 112.833 74.1897 112.833Z" fill="#D3E7FE"/>
<path fill-rule="evenodd" clip-rule="evenodd" d="M122.236 142.1L94.5053 136.1C94.5053 136.1 87.4564 134.666 81.1389 126.5C74.8214 118.3 74.1897 112.833 74.1897 112.833L103.582 119.433C103.582 119.433 108.736 137.866 122.236 142.1L125.494 142.8C124.364 142.666 123.266 142.4 122.236 142.1ZM74.9544 113.6C75.3867 115.4 76.8829 119.966 81.6044 126.1C87.7556 134.1 94.6051 135.5 94.6051 135.5L117.182 140.366C114.522 138.666 112.261 136.433 110.399 134.066C105.81 128.2 103.582 121.5 103.084 119.9L74.9544 113.6Z" fill="#04060F"/>
<path fill-rule="evenodd" clip-rule="evenodd" d="M224.678 133.033L195.851 126.333C195.851 126.333 192.759 125.233 192.027 124.3C192.027 124.3 196.084 116.266 202.002 115.766C207.921 115.3 212.01 118.9 216.698 125.533C221.353 132.166 224.678 133.033 224.678 133.033Z" fill="#D3E7FE"/>
<path fill-rule="evenodd" clip-rule="evenodd" d="M224.678 133.033L195.851 126.333C195.851 126.333 192.759 125.233 192.027 124.3C192.027 124.3 196.084 116.266 202.002 115.766C207.921 115.3 212.01 118.9 216.698 125.533C221.353 132.166 224.678 133.033 224.678 133.033ZM221.287 131.633C219.924 130.466 218.161 128.666 216.2 125.9C211.678 119.5 207.754 115.933 202.035 116.4C199.808 116.566 197.879 117.933 196.35 119.433C194.521 121.266 193.224 123.366 192.759 124.2C192.958 124.366 193.191 124.5 193.457 124.633C194.488 125.2 195.818 125.7 196.017 125.766L221.287 131.633Z" fill="#04060F"/>
<path fill-rule="evenodd" clip-rule="evenodd" d="M204.828 115.866L175.036 109.466C175.036 109.466 168.951 108.533 165.394 114.866C161.836 121.166 161.071 124.633 161.071 124.633C161.071 124.633 163.964 126.4 167.156 131.733C169.816 136.166 176.266 144.8 182.019 142.5C187.804 140.166 189.799 130.8 192.792 125.133C197.38 116.466 203.964 115.733 204.828 115.866Z" fill="white"/>
<path opacity="0.15" fill-rule="evenodd" clip-rule="evenodd" d="M190.83 120.5C191.03 119.733 190.564 118.933 189.766 118.733L177.031 115.533C176.267 115.333 175.469 115.8 175.269 116.6C175.07 117.367 175.535 118.167 176.333 118.367L189.068 121.567C189.866 121.733 190.631 121.267 190.83 120.5Z" fill="#D3E7FE"/>
<path opacity="0.15" fill-rule="evenodd" clip-rule="evenodd" d="M184.812 123.132C185.011 122.366 184.546 121.566 183.748 121.366L175.568 119.332C174.804 119.132 174.006 119.599 173.806 120.399C173.607 121.166 174.072 121.966 174.87 122.166L183.05 124.232C183.848 124.399 184.612 123.932 184.812 123.132Z" fill="#D3E7FE"/>
<path fill-rule="evenodd" clip-rule="evenodd" d="M172.643 113.266C174.006 113.9 174.338 116.066 173.407 118.066C172.476 120.066 170.581 121.2 169.218 120.566C167.855 119.933 167.522 117.766 168.453 115.766C169.384 113.733 171.279 112.633 172.643 113.266Z" fill="#D3E7FE"/>
<path opacity="0.15" fill-rule="evenodd" clip-rule="evenodd" d="M185.676 130.799C185.876 130.033 185.41 129.233 184.612 129.033L171.878 125.833C171.113 125.633 170.315 126.099 170.115 126.899C169.916 127.666 170.381 128.466 171.179 128.666L183.914 131.866C184.712 132.066 185.477 131.566 185.676 130.799Z" fill="#D3E7FE"/>
<path opacity="0.15" fill-rule="evenodd" clip-rule="evenodd" d="M179.658 133.466C179.857 132.699 179.392 131.899 178.594 131.699L170.415 129.633C169.65 129.433 168.852 129.899 168.652 130.699C168.453 131.466 168.918 132.266 169.716 132.466L177.896 134.533C178.694 134.699 179.458 134.233 179.658 133.466Z" fill="#D3E7FE"/>
<path fill-rule="evenodd" clip-rule="evenodd" d="M167.489 123.6C168.852 124.233 169.184 126.4 168.253 128.4C167.322 130.4 165.427 131.533 164.064 130.9C162.701 130.266 162.368 128.1 163.299 126.1C164.23 124.066 166.125 122.933 167.489 123.6Z" fill="#D3E7FE"/>
<path fill-rule="evenodd" clip-rule="evenodd" d="M175.036 109.466C175.036 109.466 168.951 108.533 165.394 114.866C161.836 121.166 161.071 124.633 161.071 124.633C161.071 124.633 163.964 126.4 167.156 131.733C169.816 136.166 176.266 144.8 182.019 142.5C187.804 140.166 189.799 130.8 192.792 125.133C197.347 116.466 203.964 115.766 204.828 115.9L175.036 109.466ZM192.26 124.833C190.464 128.233 189.034 132.966 186.94 136.7C185.61 139.066 184.014 141.033 181.819 141.933C179.691 142.8 177.497 141.966 175.435 140.5C172.143 138.133 169.251 134.033 167.688 131.433C165.095 127.1 162.667 125.066 161.77 124.4C162.069 123.333 163.133 120.166 165.926 115.166C169.151 109.4 174.637 110.033 174.936 110.066L201.802 115.833C199.142 116.766 195.252 119.133 192.26 124.833Z" fill="#04060F"/>
<path opacity="0.15" fill-rule="evenodd" clip-rule="evenodd" d="M249.616 60.9332C249.782 60.1332 249.25 59.3999 248.485 59.2332L226.84 54.9998C226.042 54.8332 225.31 55.3665 225.144 56.1332C224.978 56.9332 225.51 57.6665 226.274 57.8332L247.92 62.0665C248.685 62.2332 249.449 61.6999 249.616 60.9332Z" fill="#D3E7FE"/>
<path opacity="0.15" fill-rule="evenodd" clip-rule="evenodd" d="M238.045 112.566C238.211 111.766 237.679 111.033 236.914 110.866L215.269 106.633C214.471 106.466 213.739 107 213.573 107.766C213.407 108.566 213.939 109.3 214.703 109.466L236.349 113.7C237.114 113.866 237.878 113.333 238.045 112.566Z" fill="#D3E7FE"/>
<path opacity="0.15" fill-rule="evenodd" clip-rule="evenodd" d="M143.848 126.333C144.014 125.567 143.549 124.767 142.751 124.6L121.271 119.6C120.507 119.433 119.709 119.9 119.542 120.667C119.376 121.433 119.842 122.233 120.64 122.4L142.119 127.4C142.884 127.6 143.648 127.1 143.848 126.333Z" fill="#D3E7FE"/>
<path opacity="0.15" fill-rule="evenodd" clip-rule="evenodd" d="M248.917 66.1329C249.083 65.3329 248.551 64.5995 247.787 64.4329L226.141 60.1995C225.343 60.0329 224.612 60.5662 224.445 61.3329C224.279 62.1329 224.811 62.8662 225.576 63.0329L247.221 67.2662C248.019 67.4329 248.784 66.8995 248.917 66.1329Z" fill="#D3E7FE"/>
<path opacity="0.15" fill-rule="evenodd" clip-rule="evenodd" d="M236.282 117.433C236.449 116.633 235.917 115.9 235.152 115.733L213.506 111.5C212.708 111.333 211.977 111.867 211.811 112.633C211.644 113.433 212.176 114.166 212.941 114.333L234.587 118.566C235.351 118.733 236.116 118.233 236.282 117.433Z" fill="#D3E7FE"/>
<path opacity="0.15" fill-rule="evenodd" clip-rule="evenodd" d="M140.19 130.433C140.357 129.666 139.891 128.866 139.126 128.7L117.647 123.7C116.882 123.533 116.084 124 115.918 124.766C115.752 125.533 116.217 126.333 116.982 126.5L138.461 131.5C139.259 131.7 140.024 131.233 140.19 130.433Z" fill="#D3E7FE"/>
<path opacity="0.15" fill-rule="evenodd" clip-rule="evenodd" d="M238.477 69.6328C238.643 68.8328 238.111 68.0995 237.346 67.9328L225.443 65.5994C224.645 65.4328 223.914 65.9661 223.747 66.7328C223.581 67.5328 224.113 68.2661 224.878 68.4328L236.781 70.7661C237.579 70.9328 238.344 70.4328 238.477 69.6328Z" fill="#D3E7FE"/>
<path opacity="0.15" fill-rule="evenodd" clip-rule="evenodd" d="M224.745 120.399C224.911 119.599 224.379 118.866 223.614 118.699L211.711 116.366C210.913 116.199 210.181 116.733 210.015 117.499C209.849 118.299 210.381 119.033 211.145 119.199L223.049 121.533C223.847 121.699 224.578 121.166 224.745 120.399Z" fill="#D3E7FE"/>
<path opacity="0.15" fill-rule="evenodd" clip-rule="evenodd" d="M127.19 132.733C127.356 131.967 126.891 131.167 126.126 131L114.322 128.233C113.557 128.067 112.759 128.533 112.593 129.333C112.427 130.1 112.892 130.9 113.69 131.067L125.494 133.833C126.226 134 127.024 133.533 127.19 132.733Z" fill="#D3E7FE"/>
<path fill-rule="evenodd" clip-rule="evenodd" d="M246.889 78.5997L222.55 73.833C222.55 73.833 221.287 79.9997 219.724 86.633C217.995 93.933 216.299 99.733 216.299 99.733L240.638 104.5C240.638 104.5 241.702 101.3 244.162 91.3997C246.058 83.733 246.889 78.5997 246.889 78.5997Z" fill="white"/>
<path d="M223.016 74.2666C222.65 75.9666 221.553 81.1666 220.256 86.6666C218.86 92.6333 217.463 97.6333 216.964 99.3333L240.439 103.933C240.838 102.7 241.902 98.9999 243.83 91.1999C245.36 84.9666 246.224 80.3999 246.49 78.8333L223.016 74.2666Z" fill="white"/>
<path opacity="0.15" fill-rule="evenodd" clip-rule="evenodd" d="M248.95 80.7332L224.279 75.8999C224.279 75.8999 222.982 82.1666 221.419 88.8666C219.69 96.2666 217.961 102.133 217.961 102.133L242.633 106.967C242.633 106.967 243.73 103.7 246.224 93.6999C248.119 85.9332 248.95 80.7332 248.95 80.7332Z" fill="#D3E7FE"/>
<path d="M223.016 74.2666C222.65 75.9666 221.553 81.1666 220.256 86.6666C218.86 92.6333 217.463 97.6333 216.964 99.3333L240.439 103.933C240.838 102.7 241.902 98.9999 243.83 91.1999C245.36 84.9666 246.224 80.3999 246.49 78.8333L223.016 74.2666Z" stroke="#04060F" stroke-width="0.770648" stroke-miterlimit="10" stroke-linejoin="round"/>
</g>
<defs>
<clipPath id="clip0_748_7278">
<rect width="295" height="196" fill="white"/>
</clipPath>
</defs>
</svg>
